<svg width="54" height="54" viewBox="0 0 54 54" fill="none" xmlns="http://www.w3.org/2000/svg">
<g clip-path="url(#clip0)">
<path d="M53.9837 9.82436C53.9852 9.79335 53.985 9.76224 53.9831 9.73123C53.9725 9.69843 53.96 9.66637 53.9455 9.63515C53.894 9.48127 53.8053 9.34237 53.6872 9.23089C53.6432 9.1945 53.5956 9.16244 53.5454 9.13523C53.5008 9.10633 53.4535 9.08165 53.4043 9.0614C53.3429 9.04199 53.2795 9.02923 53.2154 9.02333C53.1772 9.01278 53.1383 9.00497 53.0989 8.99981C53.0893 8.99981 53.0814 9.00498 53.0719 9.00519C53.0618 9.0054 53.0528 9.00097 53.0426 9.00149L21.5846 10.9655C21.4661 8.21417 19.6885 5.81045 17.0925 4.89119C17.2147 4.2876 17.472 3.71965 17.8452 3.22986C18.806 2.19542 20.1934 1.66682 21.599 1.79992C22.0961 1.79992 22.4989 1.39703 22.4989 0.89996C22.4989 0.402888 22.0962 0 21.5991 0C19.2885 0 17.5517 0.709273 16.4373 2.10757C15.8876 2.81779 15.5079 3.64445 15.327 4.52416C15.1685 4.51298 15.0104 4.4999 14.849 4.4999C11.5174 4.5057 8.68757 6.93991 8.18407 10.2334C7.29318 9.43982 6.1421 9.00097 4.94904 8.99991C2.73527 9.00603 0.795601 10.4832 0.200972 12.6156C0.0739884 12.7692 0.0027974 12.9613 -0.000999451 13.1606V43.3184C-0.000788514 49.208 5.24762 53.9997 11.6992 53.9997C11.7529 53.9941 11.8059 53.9833 11.8576 53.9677C12.0128 54.0139 12.1786 54.0103 12.3316 53.9575L53.3715 40.9164C53.3852 40.912 53.3942 40.9013 53.4076 40.8963C53.4664 40.8717 53.5223 40.8407 53.5742 40.8038C53.7744 40.6984 53.9145 40.5062 53.9536 40.2833C53.9726 40.2234 53.9851 40.1617 53.9908 40.0992C53.9914 40.085 53.999 40.0729 53.999 40.0585V9.89998C53.9989 9.87308 53.986 9.85051 53.9837 9.82436ZM10.3721 9.12974C11.1897 7.39827 12.9345 6.2955 14.8492 6.29993C14.9454 6.29993 15.0395 6.30889 15.1343 6.31438C15.127 6.98136 15.19 7.64728 15.322 8.30119C15.4158 8.70966 15.7791 8.99949 16.1983 8.99991C16.2663 9.00012 16.3341 8.99242 16.4005 8.97703C16.8849 8.86586 17.1875 8.38313 17.0764 7.89872C17.0764 7.89872 17.0764 7.89872 17.0764 7.89861C17.0058 7.52694 16.9625 7.15063 16.9466 6.77274C19.4129 7.93732 20.4682 10.8808 19.3036 13.3472C18.139 15.8136 15.1955 16.8688 12.7291 15.7042C10.2627 14.5396 9.20742 11.5961 10.3721 9.12974ZM10.7991 52.1637C5.76041 51.7542 1.79924 47.9432 1.79924 43.3184V19.0054C3.83783 22.0419 7.15301 23.9796 10.7991 24.2656V52.1637ZM11.5762 22.4938C6.41115 22.4303 2.05921 18.4129 1.82223 13.5723C1.83351 13.4926 1.84448 13.412 1.86304 13.3251C2.16046 11.8565 3.45097 10.8007 4.94936 10.7999C6.30399 10.8029 7.50591 11.6691 7.93716 12.9533C8.0266 13.2146 8.23311 13.4192 8.4953 13.5061C9.73635 17.0161 13.5878 18.8554 17.0977 17.6143C19.2691 16.8465 20.8983 15.0233 21.4178 12.7796L46.0863 11.2394L25.8201 17.8462C25.8073 17.8504 25.7988 17.8606 25.7863 17.8654C25.7284 17.8902 25.6733 17.9215 25.6221 17.9584C25.4217 18.063 25.2819 18.2554 25.2444 18.4783C25.225 18.539 25.2123 18.6016 25.2067 18.6651C25.2062 18.6782 25.1992 18.6892 25.1992 18.7023V23.4001C25.1992 23.8972 24.7964 24.3001 24.2993 24.3001C23.8022 24.3001 23.3993 23.8972 23.3993 23.4001V19.8807C23.3993 19.3837 22.9963 18.9808 22.4994 18.9808C22.0023 18.9808 21.5994 19.3838 21.5994 19.8807V42.2998C21.5994 42.7969 21.1965 43.1997 20.6994 43.1997C20.2024 43.1997 19.7995 42.7969 19.7995 42.2998V21.0506C19.777 20.9588 19.7621 20.8653 19.7551 20.7711C19.751 20.7586 19.7409 20.7502 19.7363 20.7379C19.7117 20.6808 19.6811 20.6265 19.645 20.576C19.5993 20.4771 19.5236 20.3951 19.4287 20.3418C19.3489 20.2643 19.2466 20.2141 19.1366 20.1985C19.0711 20.1769 19.0032 20.1632 18.9344 20.1577C18.9222 20.1572 18.912 20.1506 18.8995 20.1506C18.8527 20.1561 18.8065 20.1654 18.7612 20.1786C18.7139 20.1803 18.6668 20.186 18.6205 20.1955L11.5762 22.4938ZM12.5992 38.3598V34.8524L17.9991 33.0904V36.5979L12.5992 38.3598ZM17.9991 38.4904V41.9997L12.5992 43.7595V40.2523L17.9991 38.4904ZM12.5992 32.9598V24.0524L17.9991 22.2905V31.1979L12.5992 32.9598ZM52.199 39.4002L12.5992 51.9837V45.6534L18.4308 43.7529C19.2309 45.0082 20.8971 45.3773 22.1524 44.5773C22.9303 44.0815 23.4007 43.2222 23.3991 42.2997V42.1341L52.199 32.7405V39.4002ZM52.199 30.8462L23.3991 40.24V36.7342L52.199 27.3406V30.8462ZM52.199 25.4462L23.3991 34.84V31.3343L52.199 21.9406V25.4462ZM52.199 20.0462L23.3991 29.4401V25.934C23.6874 26.0407 23.9918 26.0968 24.2991 26.0999C25.7895 26.0983 26.9975 24.8904 26.9991 23.3999V19.3558L52.1989 11.1403V20.0462H52.199Z" fill="black"/>
</g>
<defs>
<clipPath id="clip0">
<rect width="54" height="54" fill="white"/>
</clipPath>
</defs>
</svg>
