<?xml version="1.0" encoding="iso-8859-1"?>
<!-- Generator: Adobe Illustrator 19.0.0, SVG Export Plug-In . SVG Version: 6.00 Build 0)  -->
<svg version="1.1" id="Layer_1" xmlns="http://www.w3.org/2000/svg" xmlns:xlink="http://www.w3.org/1999/xlink" x="0px" y="0px"
	 viewBox="0 0 512.001 512.001" style="enable-background:new 0 0 512.001 512.001;" xml:space="preserve">
<g>
	<g>
		<path d="M439.017,206.056c-9.15,0-18.692,1.38-28.304,3.838v-20.489c0-9.198-7.458-16.651-16.651-16.651h-16.651v-8.791
			c0-52.277-29.052-99.275-75.806-122.657c-11.107-5.53-24.098,2.564-24.098,14.894c0,27.544-22.407,49.952-49.952,49.952H116.554
			c-40.207,0-73.84,28.647-81.574,66.602H16.651C7.458,172.755,0,180.208,0,189.406v29.642c0,83.231,23.74,147.253,81.941,220.977
			c16.282,20.618,40.358,32.44,66.061,32.44h114.711c25.702,0,49.779-11.826,66.06-32.445c9.618-12.184,18.207-24.088,25.99-35.872
			c5.623,1.104,11.503,1.715,17.652,1.715c52.998,0,110.982-41.166,132.012-93.719C527.027,255.646,497.25,206.056,439.017,206.056z
			 M163.708,394.779c-4.125,11.602-20.005,15.94-29.507,3.967c-40.325-51.101-59.263-91.866-65.345-140.678
			c-1.138-9.128,5.334-17.442,14.46-18.58c9.085-1.128,17.442,5.339,18.58,14.461c5.312,42.619,21.572,77.307,57.931,123.514
			C164.208,381.998,165.834,388.79,163.708,394.779z M344.111,172.755H69.453c6.873-19.382,25.388-33.301,47.101-33.301h111.004
			c36.293,0,67.23-23.339,78.603-55.8c23.826,19.442,37.951,48.592,37.951,80.31V172.755z M473.511,299.776
			c-15.605,39.006-61.026,71.974-99.757,72.716c21.797-40.855,33.094-81.54,36.084-127.61c10.043-3.608,19.986-5.525,29.18-5.525
			C474.639,239.358,486.825,266.49,473.511,299.776z"/>
	</g>
</g>
<g>
</g>
<g>
</g>
<g>
</g>
<g>
</g>
<g>
</g>
<g>
</g>
<g>
</g>
<g>
</g>
<g>
</g>
<g>
</g>
<g>
</g>
<g>
</g>
<g>
</g>
<g>
</g>
<g>
</g>
</svg>
