<svg width="54" height="54" viewBox="0 0 54 54" fill="none" xmlns="http://www.w3.org/2000/svg">
<path d="M51.4127 4.87834H48.1825L47.2853 1.34225C47.0876 0.564422 46.2349 0 45.2581 0H8.74189C7.76454 0 6.9119 0.564422 6.71471 1.34225L5.81694 4.87834H2.58683C1.16035 4.87834 0 5.82138 0 6.98071V10.4566C0 11.616 1.16035 12.5594 2.58683 12.5594H3.85617L4.57549 16.6674C4.35751 16.7695 4.1588 16.9001 3.98999 17.0579C3.55809 17.4629 3.36344 17.9993 3.4562 18.5304L8.25829 45.951C8.39059 46.7074 9.08964 47.3073 9.9727 47.4844L10.656 51.3884C10.9171 52.8773 12.5088 54 14.3591 54H39.6409C41.4912 54 43.0829 52.8773 43.344 51.3884L44.0273 47.4844C44.9104 47.3073 45.6094 46.7074 45.7417 45.951L50.5438 18.5304C50.6366 17.9993 50.4419 17.4629 50.01 17.0579C49.8412 16.9001 49.6425 16.7695 49.424 16.6674L50.1438 12.5594H51.4132C52.8396 12.5594 54 11.616 54 10.4566V6.98071C53.9995 5.82138 52.8391 4.87834 51.4127 4.87834ZM48.6144 18.3071L43.8124 45.7277C43.7896 45.8579 43.6507 45.9555 43.4895 45.9555H34.1656C33.6278 45.9555 33.1918 46.3098 33.1918 46.7474C33.1918 47.1849 33.6278 47.5392 34.1656 47.5392H42.0498L41.4146 51.1655C41.2894 51.8787 40.527 52.4167 39.6404 52.4167H14.3591C13.4725 52.4167 12.7101 51.8787 12.5849 51.1655L11.9502 47.5392H29.6322C30.1706 47.5392 30.6065 47.1849 30.6065 46.7474C30.6065 46.3098 30.1706 45.9555 29.6322 45.9555H10.51C10.3488 45.9555 10.2099 45.8579 10.1871 45.7277L5.38505 18.3071C5.3668 18.2028 5.42509 18.1299 5.46159 18.0957C5.49657 18.0632 5.57261 18.0113 5.69123 18.0063C5.70441 18.0059 5.71708 18.0051 5.73077 18.0043H48.2687C48.2819 18.0051 48.2951 18.0059 48.3083 18.0063C48.4269 18.0113 48.5029 18.0632 48.5379 18.0957C48.5744 18.1299 48.6327 18.2028 48.6144 18.3071ZM5.82455 12.5594H48.1754L47.4992 16.421H6.50078L5.82455 12.5594ZM52.0514 10.4566C52.0514 10.743 51.765 10.9758 51.4127 10.9758H2.58683C2.23502 10.9758 1.94811 10.743 1.94811 10.4566V6.98071C1.94811 6.69438 2.23502 6.46161 2.58683 6.46161H11.3044C11.8422 6.46161 12.2782 6.1073 12.2782 5.66977C12.2782 5.23265 11.8422 4.87834 11.3044 4.87834H7.80662L8.62276 1.66237C8.63442 1.61664 8.68461 1.58327 8.74189 1.58327H45.2581C45.3154 1.58327 45.3656 1.61664 45.3772 1.66237L46.1934 4.87834H15.8378C15.2994 4.87834 14.8635 5.23265 14.8635 5.66977C14.8635 6.1073 15.2994 6.46161 15.8378 6.46161H51.4127C51.765 6.46161 52.0514 6.69438 52.0514 6.98071V10.4566Z" fill="black"/>
<path d="M34.3736 24.9722C34.367 24.9668 34.3599 24.9619 34.3528 24.9565C31.1146 22.3519 25.2155 22.8924 21.1829 26.1702C19.2556 27.7362 18.0268 29.6935 17.7227 31.6818C17.4068 33.7434 18.114 35.5944 19.7133 36.8942C19.7133 36.8947 19.7139 36.8947 19.7144 36.8951C19.7169 36.8971 19.7194 36.8992 19.722 36.9008C21.0714 37.9938 22.9009 38.5719 24.9615 38.5719C25.3422 38.5719 25.7315 38.5517 26.1264 38.5121C28.5728 38.2649 30.9812 37.2659 32.9086 35.6999C36.9513 32.4139 37.6108 27.6031 34.3781 24.9759C34.3766 24.9742 34.3751 24.9734 34.3736 24.9722ZM19.6561 31.8771C19.907 30.2369 20.9386 28.6079 22.5602 27.2896C24.5033 25.7104 26.936 24.8782 29.1112 24.8782C30.1108 24.8782 31.0552 25.055 31.8734 25.415C30.2376 26.2048 27.6974 27.7584 26.9248 30.061C26.2527 32.0629 22.6059 34.2806 20.6045 35.3089C19.7894 34.3988 19.4528 33.2041 19.6561 31.8771ZM31.5307 34.5801C29.9086 35.8985 27.9042 36.7365 25.8862 36.9404C24.4607 37.0846 23.1589 36.8947 22.106 36.4036C24.115 35.3258 27.963 32.9849 28.8045 30.4775C29.4914 28.4296 32.2065 27.0506 33.4464 26.5146C35.3747 28.6009 34.5981 32.0868 31.5307 34.5801Z" fill="black"/>
</svg>
