<?xml version="1.0" standalone="no"?>
<!DOCTYPE svg PUBLIC "-//W3C//DTD SVG 20010904//EN"
 "http://www.w3.org/TR/2001/REC-SVG-20010904/DTD/svg10.dtd">
<svg version="1.0" xmlns="http://www.w3.org/2000/svg"
 width="512.000000pt" height="512.000000pt" viewBox="0 0 512.000000 512.000000"
 preserveAspectRatio="xMidYMid meet">

<g transform="translate(0.000000,512.000000) scale(0.100000,-0.100000)"
fill="#000000" stroke="none">
<path d="M2993 4805 c-35 -24 -48 -77 -28 -118 44 -93 185 -64 185 38 0 75
-95 123 -157 80z"/>
<path d="M4310 4717 c-112 -25 -211 -109 -251 -216 -28 -75 -23 -193 12 -266
30 -63 100 -134 164 -165 42 -21 65 -25 145 -25 84 0 102 3 151 28 172 84 242
294 156 463 -35 68 -91 122 -162 155 -73 34 -142 42 -215 26z m138 -206 c41
-21 82 -83 82 -125 0 -68 -58 -138 -125 -150 -57 -11 -124 26 -153 86 -28 56
-23 104 16 150 48 57 116 72 180 39z"/>
<path d="M1118 4501 c-27 -24 -33 -36 -33 -70 0 -91 105 -131 166 -63 44 49
34 119 -22 148 -42 21 -75 17 -111 -15z"/>
<path d="M497 4316 c-86 -31 -157 -101 -185 -185 -20 -59 -15 -160 12 -216 26
-57 96 -126 153 -151 56 -25 175 -24 234 3 103 46 173 158 172 273 0 117 -61
211 -168 262 -68 32 -152 37 -218 14z m156 -206 c68 -54 25 -170 -63 -170 -91
0 -131 123 -56 175 30 21 89 19 119 -5z"/>
<path d="M2099 4301 c-38 -39 -39 -87 -3 -130 21 -26 33 -31 69 -31 59 0 95
36 95 95 0 86 -100 127 -161 66z"/>
<path d="M3064 4175 c-249 -45 -475 -165 -651 -348 -51 -53 -114 -129 -139
-169 -26 -40 -48 -74 -50 -76 -1 -2 -27 17 -58 41 -124 101 -284 172 -446 198
-90 14 -272 6 -350 -15 -34 -10 -64 -25 -78 -42 -26 -30 -26 -14 2 -237 9 -70
14 -132 11 -137 -4 -6 -123 -10 -296 -10 l-291 0 -29 -29 -29 -29 0 -281 c0
-375 24 -544 107 -766 133 -355 418 -693 732 -866 l43 -24 -363 -5 c-343 -5
-367 -6 -410 -26 -66 -31 -114 -78 -146 -142 -23 -47 -28 -70 -28 -132 1 -92
30 -156 100 -218 89 -78 -41 -73 1685 -70 l1545 3 54 30 c212 117 202 419 -18
527 -45 22 -56 23 -436 28 -214 3 -385 7 -379 8 23 4 200 125 275 188 174 145
324 335 429 544 18 36 34 67 36 69 2 2 26 -6 54 -18 188 -81 421 -30 568 123
200 208 197 522 -7 725 -110 110 -236 157 -395 149 l-86 -4 0 81 c0 76 -2 83
-28 108 l-28 27 -197 0 c-224 0 -204 -10 -187 95 5 33 16 139 25 235 8 96 23
216 32 267 26 145 7 168 -162 198 -105 18 -311 18 -411 0z m359 -191 c9 -3 15
-9 13 -13 -3 -4 -14 -106 -25 -227 -12 -120 -24 -237 -27 -259 -10 -72 -43
-190 -68 -246 -101 -227 -420 -433 -709 -456 l-77 -6 16 39 c98 234 269 444
455 555 66 40 89 69 89 115 0 56 -62 103 -117 89 -93 -22 -321 -216 -423 -359
-30 -42 -57 -76 -60 -76 -4 0 -14 25 -24 57 -10 31 -37 93 -61 139 l-42 82 33
62 c146 274 438 469 764 510 63 8 227 4 263 -6z m-1657 -374 c294 -76 509
-322 549 -630 l7 -55 -57 62 c-100 110 -332 293 -373 293 -28 0 -79 -31 -91
-56 -28 -62 -10 -95 94 -172 97 -72 195 -161 266 -244 l54 -61 -82 6 c-158 12
-300 66 -411 155 -151 121 -188 210 -217 509 -8 93 -18 178 -20 191 -5 22 -4
22 98 22 71 0 128 -6 183 -20z m-414 -493 c10 -38 27 -86 38 -107 11 -22 20
-42 20 -45 0 -3 -124 -5 -275 -5 l-275 0 0 115 0 115 236 -2 237 -3 19 -68z
m2478 -42 l0 -115 -225 0 c-124 0 -225 2 -225 4 0 2 21 34 46 72 26 38 55 88
65 112 l18 42 161 0 160 0 0 -115z m442 -132 c67 -30 130 -92 161 -161 33 -72
30 -199 -6 -269 -78 -150 -249 -220 -399 -163 -32 12 -60 26 -64 31 -3 5 4 51
15 102 29 133 41 234 41 357 0 75 4 111 12 116 48 30 157 23 240 -13z m-2651
-207 c98 -74 229 -133 363 -162 84 -19 267 -22 350 -5 33 6 108 11 167 11 194
0 382 47 557 141 l92 49 337 0 336 0 -7 -76 c-9 -96 -54 -275 -95 -379 -77
-192 -180 -346 -340 -505 -206 -205 -454 -339 -744 -402 -147 -32 -447 -32
-589 -1 -206 47 -404 132 -563 245 -112 79 -272 238 -348 345 -147 206 -245
463 -272 711 l-7 62 360 0 359 0 44 -34z m2268 -1571 c60 -31 64 -117 8 -159
l-28 -21 -1511 0 -1510 0 -29 33 c-40 44 -40 93 0 133 l29 29 1507 0 c1297 0
1510 -2 1534 -15z"/>
<path d="M1278 2429 c-30 -29 -31 -32 -25 -99 3 -38 19 -107 35 -154 88 -255
305 -450 570 -512 80 -19 258 -22 289 -5 57 30 66 121 16 161 -21 16 -40 20
-102 20 -217 1 -417 104 -524 271 -40 62 -81 172 -92 243 -14 100 -103 140
-167 75z"/>
<path d="M4170 3812 c-52 -52 -39 -131 27 -158 68 -29 133 18 133 95 0 44 -37
81 -87 88 -37 5 -45 2 -73 -25z"/>
<path d="M455 1961 c-82 -34 -74 -160 12 -184 57 -17 123 33 123 93 0 69 -71
117 -135 91z"/>
<path d="M3969 1741 c-62 -62 -19 -161 71 -161 89 0 126 101 59 163 -41 38
-90 37 -130 -2z"/>
<path d="M4369 1742 c-192 -100 -173 -375 32 -447 157 -56 323 63 322 230 0
33 -7 76 -15 95 -57 132 -213 188 -339 122z m151 -188 c10 -11 11 -23 4 -42
-8 -22 -16 -27 -44 -27 -28 0 -36 5 -44 27 -12 34 6 58 44 58 15 0 33 -7 40
-16z"/>
<path d="M4293 780 c-55 -22 -74 -111 -33 -155 61 -64 170 -22 170 65 0 37
-28 77 -61 89 -37 13 -46 13 -76 1z"/>
<path d="M480 681 c-76 -23 -148 -90 -170 -156 -7 -20 -10 -65 -8 -100 10
-158 158 -259 316 -214 66 18 135 89 156 160 20 65 20 82 1 146 -36 120 -178
199 -295 164z m98 -203 c19 -19 14 -55 -10 -72 -12 -9 -26 -16 -30 -16 -13 0
-48 39 -48 54 0 37 61 61 88 34z"/>
<path d="M1609 561 c-53 -54 -35 -138 36 -161 95 -31 167 89 96 161 -22 21
-39 29 -66 29 -27 0 -44 -8 -66 -29z"/>
</g>
</svg>
