<svg width="47" height="52" viewBox="0 0 47 52" fill="none" xmlns="http://www.w3.org/2000/svg">
<path d="M7.5 19.25V20.9375C7.5 21.1613 7.58889 21.3759 7.74713 21.5341C7.90536 21.6924 8.11997 21.7813 8.34375 21.7813C8.56753 21.7813 8.78214 21.6924 8.94037 21.5341C9.09861 21.3759 9.1875 21.1613 9.1875 20.9375V19.25H10.875V20.9375C10.875 21.6088 10.6083 22.2527 10.1336 22.7274C9.65891 23.2021 9.01508 23.4688 8.34375 23.4688C7.67242 23.4688 7.02859 23.2021 6.55389 22.7274C6.07918 22.2527 5.8125 21.6088 5.8125 20.9375V19.25H7.5ZM46.3125 4.62149C46.3121 5.54935 45.9842 6.4473 45.3867 7.15717L37.3898 16.6532C38.6711 18.2327 39.5789 20.0812 40.0456 22.0608C40.5123 24.0403 40.5257 26.0997 40.0849 28.0852C40.546 28.3805 40.8989 28.8173 41.0908 29.33C41.2827 29.8428 41.3033 30.404 41.1494 30.9294C40.9955 31.4549 40.6755 31.9163 40.2373 32.2445C39.7991 32.5727 39.2663 32.7501 38.7188 32.75H38.6115L36.1798 50.5828C36.1522 50.7849 36.0523 50.9702 35.8986 51.1044C35.7449 51.2386 35.5478 51.3125 35.3438 51.3125H6.65625C6.45222 51.3125 6.25509 51.2386 6.10138 51.1044C5.94766 50.9702 5.84777 50.7849 5.8202 50.5828L3.38851 32.75H3.28125C2.60992 32.75 1.96609 32.4833 1.49139 32.0086C1.01668 31.5339 0.75 30.8901 0.75 30.2188C0.75 29.5474 1.01668 28.9036 1.49139 28.4289C1.96609 27.9542 2.60992 27.6875 3.28125 27.6875H13.6455C13.4866 26.8531 13.4065 26.0056 13.4062 25.1563C13.4012 23.142 13.8508 21.1525 14.7218 19.3363C16.142 16.3895 18.5751 14.0521 21.5764 12.7512C19.6507 11.4868 17.3974 10.8129 15.0938 10.8125C13.2938 10.8072 11.517 11.2177 9.90184 12.0119C9.89382 12.0159 9.8857 12.0197 9.87748 12.0234C7.41057 13.2408 5.44493 15.2798 4.31857 17.7896C3.19221 20.2994 2.97552 23.1232 3.70576 25.7755L2.07891 26.2245C1.25818 23.254 1.47807 20.0922 2.70206 17.2639C3.92605 14.4356 6.08052 12.111 8.80781 10.6759C9.55033 7.91739 11.1489 5.46555 13.3733 3.67322C15.5978 1.88089 18.3336 0.840481 21.1869 0.701723C24.0403 0.562964 26.8641 1.33301 29.252 2.90104C31.6399 4.46907 33.4687 6.75424 34.4754 9.4277L38.7827 2.53637C39.135 1.96927 39.6265 1.5017 40.2104 1.17809C40.7944 0.85449 41.4514 0.685609 42.1191 0.687502H42.3785C43.4215 0.688647 44.4215 1.10349 45.159 1.841C45.8965 2.57852 46.3114 3.57848 46.3125 4.62149ZM15.0938 9.125C18.1592 9.12505 21.1333 10.1686 23.5267 12.0839C26.47 11.3262 29.5827 11.5805 32.3639 12.806L33.3001 11.3083C32.6587 8.75577 31.1832 6.49055 29.1077 4.87215C27.0322 3.25375 24.4756 2.37487 21.8438 2.375C19.1611 2.36452 16.5565 3.27761 14.4676 4.96089C12.8767 6.23811 11.641 7.90294 10.8791 9.79547C12.2392 9.34847 13.6621 9.12212 15.0938 9.125ZM3.28125 31.0625H23.5312V29.375H3.28125C3.05747 29.375 2.84286 29.4639 2.68463 29.6221C2.52639 29.7804 2.4375 29.995 2.4375 30.2188C2.4375 30.4425 2.52639 30.6571 2.68463 30.8154C2.84286 30.9736 3.05747 31.0625 3.28125 31.0625ZM36.9084 32.75H35.3438C35.3438 33.4213 35.0771 34.0652 34.6024 34.5399C34.1277 35.0146 33.4838 35.2813 32.8125 35.2813C32.1412 35.2813 31.4973 35.0146 31.0226 34.5399C30.5479 34.0652 30.2812 33.4213 30.2812 32.75V30.2188C30.2812 29.995 30.1924 29.7804 30.0341 29.6221C29.8759 29.4639 29.6613 29.375 29.4375 29.375C29.2137 29.375 28.9991 29.4639 28.8409 29.6221C28.6826 29.7804 28.5938 29.995 28.5938 30.2188V31.0625C28.5941 31.575 28.4387 32.0756 28.1482 32.4979C27.8577 32.9201 27.4458 33.2442 26.967 33.4272C26.4883 33.6101 25.9652 33.6433 25.4671 33.5224C24.9691 33.4015 24.5195 33.1321 24.1779 32.75H5.09162L7.39274 49.625H34.6073L36.9084 32.75ZM39.5625 30.2188C39.5627 30.1079 39.541 29.9981 39.4987 29.8956C39.4564 29.7932 39.3942 29.7001 39.3158 29.6217C39.2374 29.5433 39.1443 29.4811 39.0419 29.4388C38.9394 29.3965 38.8296 29.3748 38.7188 29.375H35.3438V31.0625H38.7188C38.8296 31.0628 38.9395 31.0411 39.042 30.9988C39.1444 30.9565 39.2376 30.8944 39.316 30.816C39.3944 30.7376 39.4565 30.6444 39.4988 30.542C39.5411 30.4395 39.5628 30.3296 39.5625 30.2188ZM38.7188 25.1563C38.7169 22.9832 38.1168 20.8526 36.9841 18.9981C35.8515 17.1436 34.23 15.6368 32.2976 14.6429L32.2956 14.6419C30.6293 13.7829 28.7808 13.3377 26.9062 13.3438C25.7757 13.3429 24.6509 13.5042 23.5662 13.823C23.3586 13.8829 23.1562 13.9485 22.9429 14.0251C20.0046 15.0822 17.599 17.251 16.2441 20.0644C15.4823 21.6535 15.0891 23.394 15.0938 25.1563C15.0938 26.0074 15.1856 26.856 15.3674 27.6875H24.375C24.5988 27.6875 24.8134 27.7764 24.9716 27.9346C25.1299 28.0929 25.2188 28.3075 25.2188 28.5313V31.0625C25.2189 31.1781 25.2427 31.2925 25.2889 31.3986C25.335 31.5046 25.4024 31.6 25.4869 31.679C25.5715 31.7579 25.6713 31.8186 25.7802 31.8574C25.8892 31.8961 26.0049 31.9121 26.1203 31.9044C26.337 31.8848 26.5384 31.7841 26.6841 31.6225C26.8298 31.4609 26.9091 31.2502 26.9062 31.0327V30.2188C26.9069 29.5551 27.1679 28.9182 27.6331 28.4449C28.0982 27.9716 28.7305 27.6997 29.394 27.6875C30.81 27.6639 31.9688 28.8602 31.9688 30.2763V32.75C31.9689 32.8656 31.9927 32.98 32.0389 33.0861C32.085 33.1921 32.1524 33.2875 32.2369 33.3665C32.3215 33.4454 32.4213 33.5061 32.5302 33.5449C32.6392 33.5836 32.7549 33.5996 32.8703 33.5919C33.087 33.5723 33.2883 33.4716 33.4341 33.31C33.5798 33.1484 33.6591 32.9377 33.6562 32.7202V28.5313C33.6562 28.3075 33.7451 28.0929 33.9034 27.9346C34.0616 27.7764 34.2762 27.6875 34.5 27.6875H38.4454C38.6271 26.856 38.7187 26.0074 38.7188 25.1563ZM44.625 4.62149C44.6243 4.02589 44.3874 3.45487 43.9663 3.03372C43.5451 2.61257 42.9741 2.37567 42.3785 2.375H42.1191C41.7377 2.374 41.3624 2.47053 41.0288 2.65543C40.6953 2.84032 40.4145 3.10743 40.2132 3.43138L33.8646 13.5889C34.7212 14.1021 35.5172 14.7102 36.2376 15.4018L44.0964 6.06926C44.4373 5.6638 44.6244 5.15121 44.625 4.62149ZM8.82743 35.1672L7.15543 35.3953L7.40118 37.1979L9.07328 36.9699L8.82743 35.1672ZM7.65673 39.0712L8.76626 47.2078L10.4383 46.9797L9.32872 38.8431L7.65673 39.0712ZM32.8125 20.0938C32.8125 20.3175 32.7236 20.5321 32.5654 20.6904C32.4071 20.8486 32.1925 20.9375 31.9688 20.9375C31.745 20.9375 31.5304 20.8486 31.3721 20.6904C31.2139 20.5321 31.125 20.3175 31.125 20.0938V18.4063H29.4375V20.0938C29.4375 20.7651 29.7042 21.4089 30.1789 21.8836C30.6536 22.3583 31.2974 22.625 31.9688 22.625C32.6401 22.625 33.2839 22.3583 33.7586 21.8836C34.2333 21.4089 34.5 20.7651 34.5 20.0938V18.4063H32.8125V20.0938ZM20.1562 5.75H21.8438V4.0625H20.1562V5.75ZM26.9062 7.4375H25.2188V9.125H26.9062V7.4375ZM14.25 14.1875H12.5625V15.875H14.25V14.1875ZM20.1562 21.7813H21.8438V20.0938H20.1562V21.7813ZM24.375 18.4063H26.0625V16.7188H24.375V18.4063ZM26.9062 39.5C26.9062 39.7238 26.8174 39.9384 26.6591 40.0966C26.5009 40.2549 26.2863 40.3438 26.0625 40.3438C25.8387 40.3438 25.6241 40.2549 25.4659 40.0966C25.3076 39.9384 25.2188 39.7238 25.2188 39.5V37.8125H23.5312V39.5C23.5312 40.1713 23.7979 40.8152 24.2726 41.2899C24.7473 41.7646 25.3912 42.0313 26.0625 42.0313C26.7338 42.0313 27.3777 41.7646 27.8524 41.2899C28.3271 40.8152 28.5938 40.1713 28.5938 39.5V37.8125H26.9062V39.5Z" fill="black"/>
</svg>
