<svg width="32" height="32" viewBox="0 0 32 32" fill="none" xmlns="http://www.w3.org/2000/svg">
<path d="M11.6509 30.9999C12.3861 30.9999 12.9822 30.3603 12.9822 29.5713C12.9822 28.7824 12.3861 28.1428 11.6509 28.1428C10.9156 28.1428 10.3195 28.7824 10.3195 29.5713C10.3195 30.3603 10.9156 30.9999 11.6509 30.9999Z" stroke="black" stroke-width="2" stroke-linecap="round" stroke-linejoin="round"/>
<path d="M26.2959 30.9999C27.0312 30.9999 27.6272 30.3603 27.6272 29.5713C27.6272 28.7824 27.0312 28.1428 26.2959 28.1428C25.5606 28.1428 24.9645 28.7824 24.9645 29.5713C24.9645 30.3603 25.5606 30.9999 26.2959 30.9999Z" stroke="black" stroke-width="2" stroke-linecap="round" stroke-linejoin="round"/>
<path d="M1 1H6.32545L9.89351 20.1286C10.0153 20.7863 10.3487 21.3771 10.8355 21.7976C11.3223 22.2181 11.9314 22.4414 12.5562 22.4286H25.4971C26.1219 22.4414 26.731 22.2181 27.2178 21.7976C27.7046 21.3771 28.0381 20.7863 28.1598 20.1286L30.29 8.14286H7.65682" stroke="black" stroke-width="2" stroke-linecap="round" stroke-linejoin="round"/>
</svg>
