<svg xmlns="http://www.w3.org/2000/svg" viewBox="0 0 32 40" x="0px" y="0px"><title>Artboard 9</title><g data-name="Layer 9"><path d="M12,10.77a.28.28,0,0,0,.13.37.27.27,0,0,0,.4,0,3.1,3.1,0,0,0,1.51-2.61c-.1-1.08-2.94-3.45-1-4.22.36-.14.34-.71-.09-.71-1.37,0-2.77.47-2.86,2C10,7.74,13,8.49,12,10.77Zm-.48-3.63c-1-1.14-.71-2.1.22-2.54a1.84,1.84,0,0,0,0,1.24,4.4,4.4,0,0,0,.79,1.4c.7.93.92,1.77.42,2.56a3.06,3.06,0,0,0-.35-1.37A7.54,7.54,0,0,0,11.55,7.14Z"/><path d="M16.66,10.59a.28.28,0,0,0,.13.38.29.29,0,0,0,.4,0A3.75,3.75,0,0,0,19,7.9c-.13-1.36-3.68-4.2-1.13-5.19a.36.36,0,0,0-.1-.71c-1.62,0-3.26.54-3.38,2.39C14.21,6.91,17.8,7.78,16.66,10.59Zm-.72-4.36c-1.27-1.49-.83-2.77.48-3.27a2,2,0,0,0-.13,1.62,5.29,5.29,0,0,0,.94,1.67c.93,1.22,1.17,2.34.37,3.38a3.55,3.55,0,0,0-.41-1.85A8.84,8.84,0,0,0,15.94,6.23Z"/><path d="M27.8,14.6a2.35,2.35,0,0,0-2.53-.25c0-1.07-.35-1.89-1.29-2.11h-.1a147.88,147.88,0,0,0-17.74,0c-2,.17-1.78,1.37-1.63,3.13a15.82,15.82,0,0,0,1.3,5.41,9.34,9.34,0,0,0,1.94,2.75C6,23.71,3,24.32,3,26c0,1.28,2.32,1.73,3.24,1.87.36.06.74.1,1.11.14,1,2.37,4.94,1.93,7,2a27.05,27.05,0,0,0,5.69-.28,3.92,3.92,0,0,0,2.29-1.87c1.37-.15,3.57-.44,4.1-1.53.8-1.65-3.52-2.36-5.36-2.56l.51-.52.13,0c2.85-.12,6.84-2,7.18-5.2A3.75,3.75,0,0,0,27.8,14.6Zm-3,2.67a1.52,1.52,0,0,1,1-.17.77.77,0,0,1,.46.91,2.31,2.31,0,0,1-.94,1.29,4.77,4.77,0,0,1-1.67.79,24.63,24.63,0,0,0,1.1-2.81ZM18.36,29.15c-1.1.08-2.2.11-3.3.11-1.61,0-5.65.38-6.82-1.17,1.81.13,3.66.11,5.45.14A55.71,55.71,0,0,0,21.33,28,4.14,4.14,0,0,1,18.36,29.15Zm2.08-4.75a14.29,14.29,0,0,1,3.54.67c.37.11,1.28.29,1.52.59.52.66-1.55,1.12-2,1.22a40.26,40.26,0,0,1-9.49.64c-1.48,0-3-.07-4.45-.13s-3.79.12-5-.76c-1.71-1.18.82-1.82,1.75-2.06a10.77,10.77,0,0,1,2.19-.36h0a10,10,0,0,0,5.36,2,9.14,9.14,0,0,0,6.49-1.83Zm.09-1c-3.15,3-8.71,2.91-11.94,0a9.78,9.78,0,0,1-2.81-4.81,17.52,17.52,0,0,1-.55-3.21,5.47,5.47,0,0,1-.07-1.45c.32-1.23,1.56-1,2.43-1,5.4-.13,10.82-.16,16.22,0,1.5.41,0,4.59-.27,5.47A12.32,12.32,0,0,1,20.53,23.35ZM27,20.28a7.82,7.82,0,0,1-4.72,2.2c.21-.28.41-.57.6-.88s.25-.43.41-.74h0a4.53,4.53,0,0,0,3.51-2.23,1.69,1.69,0,0,0-.1-1.75A1.52,1.52,0,0,0,25,16.45a11.24,11.24,0,0,0,.24-1.21c1.38-1.17,2.83.26,3,1.69A3.83,3.83,0,0,1,27,20.28Z"/><path d="M6.76,14.86c0-.46-.76-.47-.72,0A11.24,11.24,0,0,0,7.74,20c.24.39.87,0,.62-.36A10.49,10.49,0,0,1,6.76,14.86Z"/><path d="M8.77,20.84a.36.36,0,0,0,0,.72A.36.36,0,0,0,8.77,20.84Z"/></g><text x="0" y="47" fill="#000000" font-size="5px" font-weight="bold" font-family="'Helvetica Neue', Helvetica, Arial-Unicode, Arial, Sans-serif">Created by SalahCoret Studio</text><text x="0" y="52" fill="#000000" font-size="5px" font-weight="bold" font-family="'Helvetica Neue', Helvetica, Arial-Unicode, Arial, Sans-serif">from the Noun Project</text></svg>